<?xml version="1.0" encoding="UTF-8"?>
<svg version="1.1" xmlns="http://www.w3.org/2000/svg" width="225" height="225">
<path d="M0 0 C74.25 0 148.5 0 225 0 C225 74.25 225 148.5 225 225 C150.75 225 76.5 225 0 225 C0 150.75 0 76.5 0 0 Z " fill="#FEFDFD" transform="translate(0,0)"/>
<path d="M0 0 C1.32 0 2.64 0 4 0 C4.05607422 0.97839844 4.05607422 0.97839844 4.11328125 1.9765625 C4.51958463 7.37800743 5.31059222 11.20583831 8 16 C8 16.99 8 17.98 8 19 C9.07636719 18.9278125 10.15273438 18.855625 11.26171875 18.78125 C12.73692315 18.68662257 14.21218836 18.59294041 15.6875 18.5 C16.45682861 18.45085449 17.22615723 18.40170898 18.01879883 18.35107422 C22.76033425 18.06906807 27.43557432 18.00400189 32.1875 18.125 C38.57785051 18.15208442 38.57785051 18.15208442 44 15 C44.97873538 11.40614946 44.97873538 11.40614946 45 8 C40.6147081 5.02931839 36.01508715 3.54058233 31 2 C31.33 1.34 31.66 0.68 32 0 C34.14576637 -0.02685938 36.29162645 -0.04633088 38.4375 -0.0625 C39.63246094 -0.07410156 40.82742187 -0.08570312 42.05859375 -0.09765625 C45 0 45 0 46 1 C48.98889359 1.45765667 51.98969648 1.70320951 55 2 C55 7.61 55 13.22 55 19 C58.63 19 62.26 19 66 19 C66 13.39 66 7.78 66 2 C69.3 1.67 72.6 1.34 76 1 C76 6.94 76 12.88 76 19 C79.3 19 82.6 19 86 19 C86 13.39 86 7.78 86 2 C88.29946417 5.44919626 88.80769035 8.1381022 89.625 12.1875 C89.88539063 13.45980469 90.14578125 14.73210937 90.4140625 16.04296875 C90.60742188 17.01878906 90.80078125 17.99460937 91 19 C93.97 19 96.94 19 100 19 C100.26554688 17.86820313 100.53109375 16.73640625 100.8046875 15.5703125 C101.1610844 14.08845168 101.51787576 12.6066857 101.875 11.125 C102.04902344 10.37863281 102.22304687 9.63226563 102.40234375 8.86328125 C103.7734375 3.2265625 103.7734375 3.2265625 106 1 C106 6.61 106 12.22 106 18 C108.35125 17.9690625 108.35125 17.9690625 110.75 17.9375 C116.87221422 17.92953873 122.91033092 18.4048491 129 19 C129.2165625 17.8553125 129.2165625 17.8553125 129.4375 16.6875 C130 14 130 14 131 11 C131.22179785 9.10787263 131.40614015 7.21115528 131.5625 5.3125 C131.64628906 4.31863281 131.73007813 3.32476562 131.81640625 2.30078125 C131.87699219 1.54152344 131.93757812 0.78226562 132 0 C133.65 0 135.3 0 137 0 C137.05607422 1.08667969 137.05607422 1.08667969 137.11328125 2.1953125 C137.49753278 7.84607022 138.06846149 12.02913036 141 17 C141 17.66 141 18.32 141 19 C148.26 19 155.52 19 163 19 C163 13.39 163 7.78 163 2 C164.55596796 5.11193591 165.64182086 7.77033955 166.625 11.0625 C166.88539063 11.91972656 167.14578125 12.77695313 167.4140625 13.66015625 C168 16 168 16 168 19 C173.28 19 178.56 19 184 19 C184 52 184 85 184 119 C109.75 119 35.5 119 -41 119 C-41 86 -41 53 -41 19 C-15 18 -15 18 -4 19 C-1.62437577 12.59614337 -0.41248628 6.81313553 0 0 Z " fill="#FEFEFE" transform="translate(41,106)"/>
<path d="M0 0 C5.28 0 10.56 0 16 0 C18.25 7.875 18.25 7.875 18 12 C18.66 12 19.32 12 20 12 C20.09087891 11.07767578 20.09087891 11.07767578 20.18359375 10.13671875 C20.26738281 9.32847656 20.35117188 8.52023438 20.4375 7.6875 C20.51871094 6.88699219 20.59992188 6.08648437 20.68359375 5.26171875 C21 3 21 3 22 0 C27.28 0 32.56 0 38 0 C38 7.59 38 15.18 38 23 C35.03 23 32.06 23 29 23 C28.67 18.05 28.34 13.1 28 8 C26.35 13.28 24.7 18.56 23 24 C20.03 24 17.06 24 14 24 C12.68 19.38 11.36 14.76 10 10 C9.67 14.29 9.34 18.58 9 23 C6.03 23 3.06 23 0 23 C0 15.41 0 7.82 0 0 Z " fill="#E5050A" transform="translate(118,101)"/>
<path d="M0 0 C5.28 0 10.56 0 16 0 C17.32 4.29 18.64 8.58 20 13 C20.33 8.71 20.66 4.42 21 0 C23.97 0 26.94 0 30 0 C30 7.92 30 15.84 30 24 C24.72 24 19.44 24 14 24 C12.68 19.71 11.36 15.42 10 11 C9.67 14.96 9.34 18.92 9 23 C6.03 23 3.06 23 0 23 C0 15.41 0 7.82 0 0 Z " fill="#E5060B" transform="translate(195,101)"/>
<path d="M0 0 C7.92 0 15.84 0 24 0 C24 1.98 24 3.96 24 6 C19.71 6 15.42 6 11 6 C11 7.32 11 8.64 11 10 C14.96 10 18.92 10 23 10 C23 11.65 23 13.3 23 15 C19.04 15 15.08 15 11 15 C11 16.32 11 17.64 11 19 C15.62 19 20.24 19 25 19 C25 20.98 25 22.96 25 25 C16.75 25 8.5 25 0 25 C0 16.75 0 8.5 0 0 Z " fill="#E61419" transform="translate(0,100)"/>
<path d="M0 0 C1.39456452 0.00667256 2.78911118 0.01863093 4.18359375 0.03515625 C4.89451172 0.03966797 5.60542969 0.04417969 6.33789062 0.04882812 C8.09899388 0.06064761 9.86005411 0.07858362 11.62109375 0.09765625 C13.12993588 3.53134219 14.62662776 6.97019174 16.12109375 10.41015625 C16.55035156 11.38662109 16.97960937 12.36308594 17.421875 13.36914062 C18.03095703 14.77583008 18.03095703 14.77583008 18.65234375 16.2109375 C19.21791992 17.50704956 19.21791992 17.50704956 19.79492188 18.8293457 C20.62109375 21.09765625 20.62109375 21.09765625 20.62109375 24.09765625 C16.99109375 24.09765625 13.36109375 24.09765625 9.62109375 24.09765625 C6.17634664 17.42345872 5.05857595 12.58226813 5.62109375 5.09765625 C4.30109375 5.09765625 2.98109375 5.09765625 1.62109375 5.09765625 C1.6675 5.71511719 1.71390625 6.33257812 1.76171875 6.96875 C2.05160209 13.77065557 0.73868012 18.05733266 -2.37890625 24.09765625 C-6.00890625 24.09765625 -9.63890625 24.09765625 -13.37890625 24.09765625 C-11.7758383 19.04678387 -9.83936414 14.17779461 -7.81640625 9.28515625 C-7.49994141 8.50978516 -7.18347656 7.73441406 -6.85742188 6.93554688 C-4.04767319 0.11698477 -4.04767319 0.11698477 0 0 Z " fill="#E60D11" transform="translate(39.37890625,100.90234375)"/>
<path d="M0 0 C5.28 0 10.56 0 16 0 C17.50423474 3.62329559 19.00355807 7.24848756 20.5 10.875 C20.92925781 11.90753906 21.35851562 12.94007812 21.80078125 14.00390625 C22.40986328 15.48310547 22.40986328 15.48310547 23.03125 16.9921875 C23.59682617 18.35899658 23.59682617 18.35899658 24.17382812 19.75341797 C25 22 25 22 25 24 C21.37 24 17.74 24 14 24 C10.05001202 17.45783241 9.49853343 12.57771707 10 5 C8.35 5 6.7 5 5 5 C5.03480469 5.70125 5.06960937 6.4025 5.10546875 7.125 C5.28894664 13.5554631 4.6553877 18.13601882 2 24 C-1.63 24 -5.26 24 -9 24 C-6.41572894 15.81647497 -3.22320157 7.95056387 0 0 Z " fill="#E50A0F" transform="translate(168,101)"/>
<path d="M0 0 C0 1.98 0 3.96 0 6 C-3.96 6 -7.92 6 -12 6 C-8.73142011 8.17905326 -5.78213852 9.09373811 -2.05859375 10.21875 C0 11 0 11 2 13 C1.77358491 19.22641509 1.77358491 19.22641509 -0.875 21.875 C-4.84486653 23.97669404 -8.00568172 24.13506088 -12.4375 24.125 C-13.57058594 24.12757812 -14.70367187 24.13015625 -15.87109375 24.1328125 C-18.45221183 24.02325193 -20.54944405 23.75864877 -23 23 C-23 21.02 -23 19.04 -23 17 C-18.71 17 -14.42 17 -10 17 C-13.29521518 14.80318988 -16.28004402 13.90043997 -20.0390625 12.78125 C-22 12 -22 12 -23 10 C-23.3125 6.5625 -23.3125 6.5625 -23 3 C-17.57760852 -2.80970516 -7.08108379 -1.88828901 0 0 Z " fill="#E5080C" transform="translate(85,101)"/>
<path d="M0 0 C9.57 0 19.14 0 29 0 C29 2.31 29 4.62 29 7 C26.03 7 23.06 7 20 7 C20 12.61 20 18.22 20 24 C16.37 24 12.74 24 9 24 C9 18.39 9 12.78 9 7 C6.03 7 3.06 7 0 7 C0 4.69 0 2.38 0 0 Z " fill="#E60E12" transform="translate(87,101)"/>
<path d="M0 0 C4.29 0.33 8.58 0.66 13 1 C13 1.33 13 1.66 13 2 C12.22914062 2.06058594 11.45828125 2.12117188 10.6640625 2.18359375 C9.66117188 2.26738281 8.65828125 2.35117188 7.625 2.4375 C6.12839844 2.55931641 6.12839844 2.55931641 4.6015625 2.68359375 C2.02072387 2.84965626 2.02072387 2.84965626 0 4 C0 2.68 0 1.36 0 0 Z " fill="#E40000" transform="translate(62,118)"/>
</svg>
