<?xml version="1.0" encoding="UTF-8"?>
<svg version="1.1" xmlns="http://www.w3.org/2000/svg" width="275" height="183">
<path d="M0 0 C90.75 0 181.5 0 275 0 C275 60.39 275 120.78 275 183 C184.25 183 93.5 183 0 183 C0 122.61 0 62.22 0 0 Z " fill="#FEFEFE" transform="translate(0,0)"/>
<path d="M0 0 C4.95 0 9.9 0 15 0 C15.99 2.97 16.98 5.94 18 9 C20.12456822 4.88927269 20.12456822 4.88927269 22 0 C26.95 0 31.9 0 37 0 C37 7.59 37 15.18 37 23 C34.03 23 31.06 23 28 23 C27.67 17.72 27.34 12.44 27 7 C25.68 12.28 24.36 17.56 23 23 C20.03 23 17.06 23 14 23 C12.68 18.71 11.36 14.42 10 10 C9.67 14.29 9.34 18.58 9 23 C6.03 23 3.06 23 0 23 C0 15.41 0 7.82 0 0 Z " fill="#ED2538" transform="translate(142,80)"/>
<path d="M0 0 C4.95 0 9.9 0 15 0 C16.32 4.29 17.64 8.58 19 13 C19.33 8.71 19.66 4.42 20 0 C22.64 0 25.28 0 28 0 C28 7.59 28 15.18 28 23 C23.38 23 18.76 23 14 23 C13.319375 21.205625 13.319375 21.205625 12.625 19.375 C12.36976563 18.70210937 12.11453125 18.02921875 11.8515625 17.3359375 C10.84573417 14.57683042 9.92867446 11.78602338 9 9 C8.67 13.62 8.34 18.24 8 23 C5.36 23 2.72 23 0 23 C0 15.41 0 7.82 0 0 Z " fill="#ED1C2F" transform="translate(215,80)"/>
<path d="M0 0 C7.26 0 14.52 0 22 0 C22 1.98 22 3.96 22 6 C18.04 6 14.08 6 10 6 C10 6.99 10 7.98 10 9 C13.96 9 17.92 9 22 9 C22 10.65 22 12.3 22 14 C18.04 14 14.08 14 10 14 C10 14.99 10 15.98 10 17 C14.29 17 18.58 17 23 17 C23 18.98 23 20.96 23 23 C15.41 23 7.82 23 0 23 C0 15.41 0 7.82 0 0 Z " fill="#ED2638" transform="translate(32,80)"/>
<path d="M0 0 C4.62 0 9.24 0 14 0 C23 19.5 23 19.5 23 23 C19.7 23 16.4 23 13 23 C9.5246131 17.02667877 8.42625815 12.88490225 9 6 C7.68 6 6.36 6 5 6 C5.04640625 6.556875 5.0928125 7.11375 5.140625 7.6875 C5.43676823 13.94881396 4.14498342 17.59455975 1 23 C-2.3 23 -5.6 23 -9 23 C-6.03 15.41 -3.06 7.82 0 0 Z " fill="#ED2134" transform="translate(65,80)"/>
<path d="M0 0 C4.62 0 9.24 0 14 0 C15.50437846 3.45648861 17.00367422 6.91502747 18.5 10.375 C18.92925781 11.35984375 19.35851562 12.3446875 19.80078125 13.359375 C20.40986328 14.77089844 20.40986328 14.77089844 21.03125 16.2109375 C21.40830078 17.08024902 21.78535156 17.94956055 22.17382812 18.84521484 C23 21 23 21 23 23 C19.7 23 16.4 23 13 23 C9.28392452 16.72912263 8.46550348 12.24539726 9 5 C7.68 5 6.36 5 5 5 C5.04640625 5.6290625 5.0928125 6.258125 5.140625 6.90625 C5.41805473 13.48529795 4.35449107 17.33929632 1 23 C-2.3 23 -5.6 23 -9 23 C-7.39306847 17.91949932 -5.42353736 13.03815871 -3.375 8.125 C-3.05015625 7.34125 -2.7253125 6.5575 -2.390625 5.75 C-1.59559238 3.83256838 -0.79805149 1.9161771 0 0 Z " fill="#ED2033" transform="translate(190,80)"/>
<path d="M0 0 C1.89492187 0.01353516 1.89492187 0.01353516 3.828125 0.02734375 C4.79234375 0.03894531 5.7565625 0.05054687 6.75 0.0625 C6.75 2.0425 6.75 4.0225 6.75 6.0625 C3.12 6.0625 -0.51 6.0625 -4.25 6.0625 C-2.02806313 8.28443687 -0.71339366 8.67733047 2.25 9.5625 C5.21339366 10.44766953 6.52806313 10.84056313 8.75 13.0625 C8.6875 16.5 8.6875 16.5 7.75 20.0625 C3.68081703 23.40504316 0.20419207 23.41321875 -4.9375 23.3125 C-5.61361328 23.30734375 -6.28972656 23.3021875 -6.98632812 23.296875 C-11.93894527 23.21802736 -11.93894527 23.21802736 -14.25 22.0625 C-14.25 20.4125 -14.25 18.7625 -14.25 17.0625 C-10.29 17.0625 -6.33 17.0625 -2.25 17.0625 C-1.92 16.4025 -1.59 15.7425 -1.25 15.0625 C-1.93707031 14.94132812 -2.62414062 14.82015625 -3.33203125 14.6953125 C-4.23308594 14.52773437 -5.13414063 14.36015625 -6.0625 14.1875 C-6.95582031 14.02507812 -7.84914063 13.86265625 -8.76953125 13.6953125 C-11.25 13.0625 -11.25 13.0625 -14.25 11.0625 C-14.90625 5.046875 -14.90625 5.046875 -13 2.1875 C-8.95924107 -0.41013074 -4.6826214 -0.04335761 0 0 Z " fill="#ED182B" transform="translate(104.25,79.9375)"/>
<path d="M0 0 C8.91 0 17.82 0 27 0 C27 2.31 27 4.62 27 7 C24.36 7 21.72 7 19 7 C19 12.28 19 17.56 19 23 C15.7 23 12.4 23 9 23 C9 17.72 9 12.44 9 7 C6.03 7 3.06 7 0 7 C0 4.69 0 2.38 0 0 Z " fill="#ED2335" transform="translate(113,80)"/>
</svg>
